<svg width="25" height="24" viewBox="0 0 25 24" fill="none" xmlns="http://www.w3.org/2000/svg">
<path d="M14.302 1.83293C14.1484 1.7074 13.9714 1.61359 13.7813 1.55691C13.5912 1.50024 13.3918 1.48183 13.1945 1.50275C12.9973 1.52368 12.8061 1.58352 12.6322 1.67882C12.4582 1.77412 12.3048 1.90297 12.181 2.05793L7.837 7.49993H9.757L13.3525 2.99393L14.5075 3.93743L11.6125 7.49993H13.5445L15.67 4.88393L18.247 6.98843L17.8 7.49993H18.25C18.6973 7.49946 19.1422 7.56569 19.57 7.69643C19.7334 7.38988 19.7854 7.03611 19.717 6.69552C19.6486 6.35493 19.4641 6.04864 19.195 5.82893L14.302 1.83293ZM4.75 8.24993C4.75 8.05102 4.82902 7.86025 4.96967 7.7196C5.11032 7.57895 5.30109 7.49993 5.5 7.49993H6.337L7.5295 5.99993H5.5C4.90326 5.99993 4.33097 6.23698 3.90901 6.65894C3.48705 7.0809 3.25 7.65319 3.25 8.24993V17.2499C3.25 18.2445 3.64509 19.1983 4.34835 19.9016C5.05161 20.6048 6.00544 20.9999 7 20.9999H18.25C19.0456 20.9999 19.8087 20.6839 20.3713 20.1213C20.9339 19.5586 21.25 18.7956 21.25 17.9999V11.9999C21.25 11.2043 20.9339 10.4412 20.3713 9.87861C19.8087 9.316 19.0456 8.99993 18.25 8.99993H5.5C5.30109 8.99993 5.11032 8.92091 4.96967 8.78026C4.82902 8.63961 4.75 8.44884 4.75 8.24993ZM16 14.9999H17.5C17.6989 14.9999 17.8897 15.0789 18.0303 15.2196C18.171 15.3603 18.25 15.551 18.25 15.7499C18.25 15.9488 18.171 16.1396 18.0303 16.2803C17.8897 16.4209 17.6989 16.4999 17.5 16.4999H16C15.8011 16.4999 15.6103 16.4209 15.4697 16.2803C15.329 16.1396 15.25 15.9488 15.25 15.7499C15.25 15.551 15.329 15.3603 15.4697 15.2196C15.6103 15.0789 15.8011 14.9999 16 14.9999Z" fill="white"/>
</svg>
