<svg width="19" height="18" viewBox="0 0 19 18" fill="none" xmlns="http://www.w3.org/2000/svg">
<rect x="0.399994" width="18" height="18" rx="9" fill="#282F44"/>
<g clip-path="url(#clip0_127_169)">
<path d="M6.3697 15.8061L8.06667 14.0606C7.46061 13.9394 6.90303 13.697 6.39394 13.3576L6.3697 15.8061ZM11.9455 2.37575L10.2485 4.1212C10.8546 4.24241 11.4121 4.48484 11.9212 4.82423L11.9455 2.37575ZM2.44243 11.8788L4.89091 11.8545C4.55152 11.3454 4.3091 10.7879 4.18788 10.1818L2.44243 11.8788ZM15.8727 6.30302L13.4242 6.32726C13.7394 6.83635 13.9818 7.39393 14.1273 7.99999L15.8727 6.30302ZM2.44243 6.30302L4.18788 7.99999C4.3091 7.39393 4.55152 6.83635 4.89091 6.32726L2.44243 6.30302ZM15.8727 11.8788L14.1273 10.1818C14.0061 10.7879 13.7636 11.3454 13.4242 11.8545L15.8727 11.8788ZM6.3697 2.37575L6.39394 4.82423C6.90303 4.50908 7.46061 4.26666 8.06667 4.1212L6.3697 2.37575ZM11.9455 15.8061L11.9212 13.3576C11.4121 13.697 10.8546 13.9394 10.2485 14.0606L11.9455 15.8061Z" fill="#FFE62E"/>
<path d="M4.98789 12L4.01819 14.2545L6.27274 13.2848C5.76365 12.9212 5.32728 12.4848 4.98789 12ZM13.3273 6.18181L14.297 3.92727L12.0667 4.89696C12.5515 5.2606 12.9879 5.69696 13.3273 6.18181ZM4.16365 8.19393L1.88486 9.0909L4.16365 9.98787C4.09092 9.69696 4.06668 9.40606 4.06668 9.0909C4.06668 8.77575 4.09092 8.48484 4.16365 8.19393ZM14.1515 9.98787L16.4303 9.0909L14.1515 8.19393C14.2 8.48484 14.2485 8.79999 14.2485 9.0909C14.2485 9.40606 14.2243 9.69696 14.1515 9.98787ZM6.24849 4.92121L3.99395 3.95151L4.96365 6.20606C5.32728 5.69696 5.76365 5.2606 6.24849 4.92121ZM12.0667 13.2606L14.3212 14.2303L13.3515 11.9758C12.9879 12.4848 12.5515 12.9212 12.0667 13.2606ZM10.0546 4.09696L9.15758 1.81818L8.26061 4.09696C8.55152 4.04848 8.86668 3.99999 9.15758 3.99999C9.44849 3.99999 9.76365 4.02424 10.0546 4.09696ZM8.26061 14.0848L9.15758 16.3636L10.0546 14.0848C9.76365 14.1576 9.47274 14.1818 9.15758 14.1818C8.84243 14.1818 8.55152 14.1576 8.26061 14.0848Z" fill="#FFCE31"/>
<path d="M9.15759 13.697C11.7014 13.697 13.7636 11.6348 13.7636 9.09091C13.7636 6.54705 11.7014 4.48485 9.15759 4.48485C6.61373 4.48485 4.55153 6.54705 4.55153 9.09091C4.55153 11.6348 6.61373 13.697 9.15759 13.697Z" fill="#FFCE31"/>
</g>
<g clip-path="url(#clip1_127_169)">
<path d="M16.5514 8.72727H14.8787L15.8969 7.70909C16.0423 7.56363 16.0423 7.34545 15.8969 7.19999C15.7514 7.05454 15.5332 7.05454 15.3878 7.19999L13.8605 8.72727H12.7211L13.3272 8.12121C13.4726 7.97575 13.4726 7.75757 13.3272 7.61212C13.1817 7.46666 12.9636 7.46666 12.8181 7.61212L11.7029 8.72727H10.5393L12.7211 6.54545H14.8787C15.0726 6.54545 15.2423 6.37575 15.2423 6.18181C15.2423 5.98787 15.0726 5.81818 14.8787 5.81818H13.4484L14.7817 4.48484C14.9272 4.33939 14.9272 4.12121 14.7817 3.97575C14.6363 3.8303 14.4181 3.8303 14.2726 3.97575L12.9393 5.30909V3.87878C12.9151 3.6606 12.7696 3.51515 12.5514 3.51515C12.3333 3.51515 12.1878 3.68484 12.1878 3.87878V6.03636L10.006 8.21818V7.05454L11.1211 5.93939C11.2666 5.79393 11.2666 5.57575 11.1211 5.4303C10.9757 5.28484 10.7575 5.28484 10.612 5.4303L10.006 6.03636V4.89696L11.5332 3.36969C11.6787 3.22424 11.6787 3.00606 11.5332 2.8606C11.3878 2.71515 11.1696 2.71515 11.0242 2.8606L10.006 3.87878V2.18181C10.006 1.98787 9.83628 1.81818 9.64234 1.81818C9.4484 1.81818 9.2787 1.98787 9.2787 2.18181V3.85454L8.26052 2.83636C8.11507 2.6909 7.89689 2.6909 7.75143 2.83636C7.60598 2.98181 7.60598 3.19999 7.75143 3.34545L9.2787 4.87272V6.01212L8.67264 5.40605C8.52719 5.2606 8.30901 5.2606 8.16355 5.40605C8.0181 5.55151 8.0181 5.76969 8.16355 5.91515L9.2787 7.0303V8.19393L7.09689 6.01212V3.85454C7.09689 3.6606 6.92719 3.51515 6.73325 3.51515C6.53931 3.51515 6.36961 3.68484 6.36961 3.87878V5.30909L5.03628 3.97575C4.89083 3.8303 4.67264 3.8303 4.52719 3.97575C4.38173 4.12121 4.38173 4.33939 4.52719 4.48484L5.86052 5.81818H4.43022C4.21204 5.81818 4.06658 5.96363 4.06658 6.18181C4.06658 6.39999 4.23628 6.54545 4.43022 6.54545H6.5878L8.76961 8.72727H7.60598L6.49083 7.61212C6.34537 7.46666 6.12719 7.46666 5.98173 7.61212C5.83628 7.75757 5.83628 7.97575 5.98173 8.12121L6.5878 8.72727H5.4484L3.92113 7.19999C3.77567 7.05454 3.55749 7.05454 3.41204 7.19999C3.26658 7.34545 3.26658 7.56363 3.41204 7.70909L4.43022 8.72727H2.73325C2.53931 8.72727 2.36961 8.89696 2.36961 9.0909C2.36961 9.28484 2.53931 9.45454 2.73325 9.45454H4.40598L3.3878 10.4727C3.24234 10.6182 3.24234 10.8364 3.3878 10.9818C3.46052 11.0545 3.55749 11.0788 3.65446 11.0788C3.75143 11.0788 3.8484 11.0545 3.92113 10.9818L5.4484 9.45454H6.5878L5.95749 10.0606C5.81204 10.2061 5.81204 10.4242 5.95749 10.5697C6.03022 10.6424 6.12719 10.6667 6.22416 10.6667C6.32113 10.6667 6.4181 10.6424 6.49083 10.5697L7.60598 9.45454H8.76961L6.5878 11.6364H4.43022C4.21204 11.6364 4.06658 11.8061 4.06658 12C4.06658 12.1939 4.23628 12.3636 4.43022 12.3636H5.86052L4.52719 13.697C4.38173 13.8424 4.38173 14.0606 4.52719 14.2061C4.59992 14.2788 4.69689 14.303 4.79386 14.303C4.89083 14.303 4.9878 14.2788 5.06052 14.2061L6.39386 12.8727V14.303C6.39386 14.497 6.56355 14.6667 6.75749 14.6667C6.95143 14.6667 7.12113 14.497 7.12113 14.303V12.1454L9.30295 9.96363V11.1273L8.16355 12.2424C8.0181 12.3879 8.0181 12.6061 8.16355 12.7515C8.23628 12.8242 8.33325 12.8485 8.43022 12.8485C8.52719 12.8485 8.62416 12.8242 8.69689 12.7515L9.30295 12.1454V13.2848L7.77567 14.8121C7.63022 14.9576 7.63022 15.1758 7.77567 15.3212C7.8484 15.3939 7.94537 15.4182 8.04234 15.4182C8.13931 15.4182 8.23628 15.3939 8.30901 15.3212L9.32719 14.303V15.9758C9.32719 16.1697 9.49689 16.3394 9.69083 16.3394C9.88477 16.3394 10.0545 16.1697 10.0545 15.9758V14.303L11.0726 15.3212C11.1454 15.3939 11.2423 15.4182 11.3393 15.4182C11.4363 15.4182 11.5332 15.3939 11.606 15.3212C11.7514 15.1758 11.7514 14.9576 11.606 14.8121L10.0787 13.2848V12.1454L10.6848 12.7515C10.7575 12.8242 10.8545 12.8485 10.9514 12.8485C11.0484 12.8485 11.1454 12.8242 11.2181 12.7515C11.3636 12.6061 11.3636 12.3879 11.2181 12.2424L10.1029 11.1273V9.96363L12.2848 12.1454V14.303C12.2848 14.497 12.4545 14.6667 12.6484 14.6667C12.8423 14.6667 13.012 14.497 13.012 14.303V12.8727L14.3454 14.2061C14.4181 14.2788 14.5151 14.303 14.612 14.303C14.709 14.303 14.806 14.2788 14.8787 14.2061C15.0242 14.0606 15.0242 13.8424 14.8787 13.697L13.5454 12.3636H14.9757C15.1696 12.3636 15.3393 12.1939 15.3393 12C15.3393 11.8061 15.1696 11.6364 14.9757 11.6364H12.8181L10.6363 9.45454H11.7999L12.9151 10.5697C12.9878 10.6424 13.0848 10.6667 13.1817 10.6667C13.2787 10.6667 13.3757 10.6424 13.4484 10.5697C13.5939 10.4242 13.5939 10.2061 13.4484 10.0606L12.8423 9.45454H13.9817L15.509 10.9818C15.5817 11.0545 15.6787 11.0788 15.7757 11.0788C15.8726 11.0788 15.9696 11.0545 16.0423 10.9818C16.1878 10.8364 16.1878 10.6182 16.0423 10.4727L15.0242 9.45454H16.6969C16.8908 9.45454 17.0605 9.28484 17.0605 9.0909C17.0605 8.89696 16.7454 8.72727 16.5514 8.72727Z" fill="#75D6FF"/>
</g>
<defs>
<clipPath id="clip0_127_169">
<rect width="7.75758" height="16" fill="white" transform="translate(1.39999 1)"/>
</clipPath>
<clipPath id="clip1_127_169">
<rect width="7.75758" height="16" fill="white" transform="translate(9.64236 1)"/>
</clipPath>
</defs>
</svg>
