<svg width="25" height="24" viewBox="0 0 25 24" fill="none" xmlns="http://www.w3.org/2000/svg">
<path d="M8.25 7.49992V4.49992C8.25001 3.97332 8.38864 3.456 8.65195 2.99995C8.91526 2.5439 9.29398 2.1652 9.75003 1.9019C10.2061 1.63861 10.7234 1.5 11.25 1.5C11.7766 1.5 12.2939 1.63862 12.75 1.90192C13.2061 1.63862 13.7234 1.5 14.25 1.5C14.7766 1.5 15.2939 1.63861 15.75 1.9019C16.206 2.1652 16.5847 2.5439 16.848 2.99995C17.1114 3.456 17.25 3.97332 17.25 4.49992V7.49992H18C18.5967 7.49992 19.169 7.73698 19.591 8.15893C20.0129 8.58089 20.25 9.15319 20.25 9.74992V19.4999C20.25 20.2956 19.9339 21.0586 19.3713 21.6212C18.8087 22.1839 18.0456 22.4999 17.25 22.4999H8.25C7.45435 22.4999 6.69129 22.1839 6.12868 21.6212C5.56607 21.0586 5.25 20.2956 5.25 19.4999V9.74992C5.25 9.15319 5.48705 8.58089 5.90901 8.15893C6.33097 7.73698 6.90326 7.49992 7.5 7.49992H8.25ZM9.75 4.49992V7.49992H12.75V4.49992C12.75 4.1021 12.592 3.72057 12.3107 3.43926C12.0294 3.15796 11.6478 2.99992 11.25 2.99992C10.8522 2.99992 10.4706 3.15796 10.1893 3.43926C9.90804 3.72057 9.75 4.1021 9.75 4.49992ZM17.25 20.9999C17.6478 20.9999 18.0294 20.8419 18.3107 20.5606C18.592 20.2793 18.75 19.8977 18.75 19.4999V9.74992C18.75 9.55101 18.671 9.36025 18.5303 9.21959C18.3897 9.07894 18.1989 8.99992 18 8.99992H15.75V19.4999C15.75 19.8977 15.908 20.2793 16.1893 20.5606C16.4706 20.8419 16.8522 20.9999 17.25 20.9999ZM14.25 8.99992H7.5C7.30109 8.99992 7.11032 9.07894 6.96967 9.21959C6.82902 9.36025 6.75 9.55101 6.75 9.74992V19.4999C6.75 19.8977 6.90804 20.2793 7.18934 20.5606C7.47064 20.8419 7.85218 20.9999 8.25 20.9999H14.652C14.388 20.5441 14.2493 20.0266 14.25 19.4999V8.99992ZM14.25 4.49992V7.49992H15.75V4.49992C15.7502 4.2709 15.6979 4.04488 15.5972 3.83919C15.4965 3.6335 15.35 3.4536 15.169 3.31328C14.988 3.17297 14.7773 3.07596 14.553 3.02971C14.3287 2.98345 14.0967 2.98917 13.875 3.04642C14.115 3.47692 14.25 3.97342 14.25 4.49992Z" fill="#E6AF2E"/>
</svg>
