<svg width="19" height="21" viewBox="0 0 19 21" fill="none" xmlns="http://www.w3.org/2000/svg">
<path d="M9.5 0C11.8869 0 14.1761 0.948212 15.864 2.63604C17.5518 4.32387 18.5 6.61305 18.5 9C18.5 12.726 15.66 16.63 10.1 20.8C9.9269 20.9298 9.71637 21 9.5 21C9.28363 21 9.0731 20.9298 8.9 20.8C3.34 16.63 0.5 12.726 0.5 9C0.5 6.61305 1.44821 4.32387 3.13604 2.63604C4.82387 0.948212 7.11305 0 9.5 0ZM9.5 6C8.70435 6 7.94129 6.31607 7.37868 6.87868C6.81607 7.44129 6.5 8.20435 6.5 9C6.5 9.79565 6.81607 10.5587 7.37868 11.1213C7.94129 11.6839 8.70435 12 9.5 12C10.2956 12 11.0587 11.6839 11.6213 11.1213C12.1839 10.5587 12.5 9.79565 12.5 9C12.5 8.20435 12.1839 7.44129 11.6213 6.87868C11.0587 6.31607 10.2956 6 9.5 6Z" fill="#282F44"/>
</svg>
