<svg width="20" height="20" viewBox="0 0 20 20" fill="none" xmlns="http://www.w3.org/2000/svg">
<path d="M0.219732 0.220011C0.0927148 0.347 0.0154866 0.515354 0.00209013 0.694463C-0.0113063 0.873572 0.0400186 1.05154 0.146732 1.19601L0.219732 1.28001L4.25373 5.31501C2.28676 6.69364 0.882618 8.73506 0.298732 11.065C0.253712 11.2568 0.285971 11.4586 0.388538 11.6268C0.491105 11.7951 0.655742 11.9162 0.846869 11.964C1.038 12.0118 1.24026 11.9825 1.40995 11.8824C1.57965 11.7823 1.70313 11.6194 1.75373 11.429C2.27263 9.36101 3.55064 7.56396 5.33373 6.39501L7.14373 8.20501C6.42073 8.96051 6.02232 9.96909 6.03386 11.0147C6.04539 12.0604 6.46594 13.0599 7.20544 13.7993C7.94493 14.5387 8.94456 14.959 9.9902 14.9704C11.0359 14.9817 12.0444 14.5832 12.7997 13.86L18.7187 19.78C18.8526 19.9142 19.0322 19.9928 19.2216 19.9999C19.411 20.007 19.596 19.9422 19.7396 19.8184C19.8831 19.6946 19.9744 19.5211 19.9953 19.3328C20.0161 19.1444 19.9648 18.9551 19.8517 18.803L19.7787 18.719L13.6657 12.605L13.6667 12.603L6.71673 5.65701L6.71873 5.65501L5.58573 4.52501L1.27973 0.220011C1.13911 0.079561 0.948483 0.000671387 0.749732 0.000671387C0.550982 0.000671387 0.360358 0.079561 0.219732 0.220011ZM9.99973 3.50001C8.99973 3.50001 8.02973 3.64801 7.11073 3.92501L8.34773 5.16101C10.4873 4.73737 12.7078 5.15209 14.5502 6.31944C16.3926 7.48679 17.716 9.31748 18.2467 11.433C18.2985 11.6219 18.4222 11.7831 18.5913 11.882C18.7604 11.9809 18.9615 12.0098 19.1516 11.9624C19.3417 11.9149 19.5056 11.795 19.6084 11.6283C19.7113 11.4615 19.7447 11.2611 19.7017 11.07C19.1595 8.90747 17.9103 6.98807 16.1525 5.61658C14.3948 4.2451 12.2292 3.50015 9.99973 3.50001ZM10.1947 7.01001L13.9957 10.81C13.9466 9.81791 13.5303 8.87953 12.8278 8.17724C12.1253 7.47495 11.1868 7.05892 10.1947 7.01001Z" fill="#8E919C"/>
</svg>
