<svg width="23" height="20" viewBox="0 0 23 20" fill="none" xmlns="http://www.w3.org/2000/svg">
<path d="M9.25039 19.8002C9.06474 19.8002 8.88669 19.7264 8.75542 19.5952C8.62414 19.4639 8.55039 19.2858 8.55039 19.1002C8.55039 18.9145 8.62414 18.7365 8.75542 18.6052C8.88669 18.4739 9.06474 18.4002 9.25039 18.4002H18.3504C19.093 18.4002 19.8052 18.1052 20.3303 17.5801C20.8554 17.055 21.1504 16.3428 21.1504 15.6002V4.4002C21.1504 3.65759 20.8554 2.9454 20.3303 2.4203C19.8052 1.89519 19.093 1.6002 18.3504 1.6002H9.25039C9.06474 1.6002 8.88669 1.52645 8.75542 1.39517C8.62414 1.26389 8.55039 1.08585 8.55039 0.900195C8.55039 0.714544 8.62414 0.536496 8.75542 0.405221C8.88669 0.273945 9.06474 0.200195 9.25039 0.200195H18.3504C19.4643 0.200195 20.5326 0.642694 21.3202 1.43035C22.1079 2.218 22.5504 3.28629 22.5504 4.4002V15.6002C22.5504 16.7141 22.1079 17.7824 21.3202 18.57C20.5326 19.3577 19.4643 19.8002 18.3504 19.8002H9.25039ZM9.45479 4.60459C9.51982 4.53941 9.59706 4.48769 9.6821 4.4524C9.76715 4.41711 9.85832 4.39894 9.95039 4.39894C10.0425 4.39894 10.1336 4.41711 10.2187 4.4524C10.3037 4.48769 10.381 4.53941 10.446 4.60459L15.346 9.50459C15.4112 9.56962 15.4629 9.64686 15.4982 9.73191C15.5335 9.81695 15.5516 9.90812 15.5516 10.0002C15.5516 10.0923 15.5335 10.1834 15.4982 10.2685C15.4629 10.3535 15.4112 10.4308 15.346 10.4958L10.446 15.3958C10.3146 15.5272 10.1363 15.6011 9.95039 15.6011C9.76451 15.6011 9.58623 15.5272 9.45479 15.3958C9.32335 15.2644 9.24951 15.0861 9.24951 14.9002C9.24951 14.7143 9.32335 14.536 9.45479 14.4046L13.1606 10.7002H0.850391C0.664739 10.7002 0.486691 10.6264 0.355416 10.4952C0.22414 10.3639 0.150391 10.1858 0.150391 10.0002C0.150391 9.81454 0.22414 9.63649 0.355416 9.50522C0.486691 9.37394 0.664739 9.30019 0.850391 9.30019H13.1606L9.45479 5.59579C9.3896 5.53077 9.33788 5.45353 9.30259 5.36848C9.2673 5.28344 9.24914 5.19227 9.24914 5.10019C9.24914 5.00812 9.2673 4.91695 9.30259 4.83191C9.33788 4.74686 9.3896 4.66962 9.45479 4.60459Z" fill="#8E919C"/>
</svg>
