<svg width="19" height="20" viewBox="0 0 19 20" fill="none" xmlns="http://www.w3.org/2000/svg">
<path d="M11.552 0.833054C11.3984 0.707526 11.2214 0.613709 11.0313 0.557034C10.8412 0.500358 10.6418 0.481951 10.4445 0.502876C10.2473 0.523802 10.0561 0.583645 9.88216 0.678941C9.70818 0.774238 9.55484 0.903095 9.431 1.05805L5.087 6.50005H7.007L10.6025 1.99405L11.7575 2.93755L8.8625 6.50005H10.7945L12.92 3.88405L15.497 5.98855L15.05 6.50005H15.5C15.9473 6.49958 16.3922 6.56581 16.82 6.69655C16.9834 6.39 17.0354 6.03623 16.967 5.69564C16.8986 5.35505 16.7141 5.04876 16.445 4.82905L11.552 0.833054ZM2 7.25005C2 7.05114 2.07902 6.86038 2.21967 6.71972C2.36032 6.57907 2.55109 6.50005 2.75 6.50005H3.587L4.7795 5.00005H2.75C2.15326 5.00005 1.58097 5.23711 1.15901 5.65906C0.737053 6.08102 0.5 6.65332 0.5 7.25005V16.2501C0.5 17.2446 0.895088 18.1984 1.59835 18.9017C2.30161 19.605 3.25544 20.0001 4.25 20.0001H15.5C16.2956 20.0001 17.0587 19.684 17.6213 19.1214C18.1839 18.5588 18.5 17.7957 18.5 17.0001V11.0001C18.5 10.2044 18.1839 9.44134 17.6213 8.87873C17.0587 8.31612 16.2956 8.00005 15.5 8.00005H2.75C2.55109 8.00005 2.36032 7.92104 2.21967 7.78038C2.07902 7.63973 2 7.44897 2 7.25005ZM13.25 14.0001H14.75C14.9489 14.0001 15.1397 14.0791 15.2803 14.2197C15.421 14.3604 15.5 14.5511 15.5 14.7501C15.5 14.949 15.421 15.1397 15.2803 15.2804C15.1397 15.421 14.9489 15.5001 14.75 15.5001H13.25C13.0511 15.5001 12.8603 15.421 12.7197 15.2804C12.579 15.1397 12.5 14.949 12.5 14.7501C12.5 14.5511 12.579 14.3604 12.7197 14.2197C12.8603 14.0791 13.0511 14.0001 13.25 14.0001Z" fill="#282F44"/>
</svg>
