<svg width="16" height="22" viewBox="0 0 16 22" fill="none" xmlns="http://www.w3.org/2000/svg">
<path d="M3.5 6.50005V3.50005C3.50001 2.97344 3.63864 2.45612 3.90195 2.00007C4.16526 1.54403 4.54398 1.16532 5.00003 0.902027C5.45609 0.638731 5.97342 0.500119 6.50002 0.500122C7.02662 0.500125 7.54395 0.638744 8 0.902046C8.45605 0.638744 8.97338 0.500125 9.49998 0.500122C10.0266 0.500119 10.5439 0.638731 11 0.902027C11.456 1.16532 11.8347 1.54403 12.098 2.00007C12.3614 2.45612 12.5 2.97344 12.5 3.50005V6.50005H13.25C13.8467 6.50005 14.419 6.7371 14.841 7.15906C15.2629 7.58101 15.5 8.15331 15.5 8.75005V18.5C15.5 19.2957 15.1839 20.0588 14.6213 20.6214C14.0587 21.184 13.2956 21.5 12.5 21.5H3.5C2.70435 21.5 1.94129 21.184 1.37868 20.6214C0.81607 20.0588 0.5 19.2957 0.5 18.5V8.75005C0.5 8.15331 0.737053 7.58101 1.15901 7.15906C1.58097 6.7371 2.15326 6.50005 2.75 6.50005H3.5ZM5 3.50005V6.50005H8V3.50005C8 3.10222 7.84196 2.72069 7.56066 2.43939C7.27936 2.15808 6.89782 2.00005 6.5 2.00005C6.10218 2.00005 5.72064 2.15808 5.43934 2.43939C5.15804 2.72069 5 3.10222 5 3.50005ZM12.5 20C12.8978 20 13.2794 19.842 13.5607 19.5607C13.842 19.2794 14 18.8979 14 18.5V8.75005C14 8.55113 13.921 8.36037 13.7803 8.21972C13.6397 8.07906 13.4489 8.00005 13.25 8.00005H11V18.5C11 18.8979 11.158 19.2794 11.4393 19.5607C11.7206 19.842 12.1022 20 12.5 20ZM9.5 8.00005H2.75C2.55109 8.00005 2.36032 8.07906 2.21967 8.21972C2.07902 8.36037 2 8.55113 2 8.75005V18.5C2 18.8979 2.15804 19.2794 2.43934 19.5607C2.72064 19.842 3.10218 20 3.5 20H9.902C9.63801 19.5443 9.49931 19.0268 9.5 18.5V8.00005ZM9.5 3.50005V6.50005H11V3.50005C11.0002 3.27102 10.9479 3.045 10.8472 2.83931C10.7465 2.63362 10.6 2.45372 10.419 2.31341C10.238 2.17309 10.0273 2.07609 9.80297 2.02983C9.57867 1.98357 9.34675 1.98929 9.125 2.04655C9.365 2.47705 9.5 2.97355 9.5 3.50005Z" fill="#8E919C"/>
</svg>
