<svg width="22" height="16" viewBox="0 0 22 16" fill="none" xmlns="http://www.w3.org/2000/svg">
<path d="M0.5 3.125C0.5 1.676 1.676 0.5 3.125 0.5H18.875C20.324 0.5 21.5 1.676 21.5 3.125V12.875C21.5 13.5712 21.2234 14.2389 20.7312 14.7312C20.2389 15.2234 19.5712 15.5 18.875 15.5H3.125C2.42881 15.5 1.76113 15.2234 1.26884 14.7312C0.776562 14.2389 0.5 13.5712 0.5 12.875V3.125ZM6.8915 7.571C7.15881 7.571 7.42349 7.51835 7.67045 7.41606C7.91741 7.31376 8.1418 7.16383 8.33082 6.97482C8.51983 6.7858 8.66976 6.56141 8.77206 6.31445C8.87435 6.06749 8.927 5.80281 8.927 5.5355C8.927 5.26819 8.87435 5.00351 8.77206 4.75655C8.66976 4.50959 8.51983 4.2852 8.33082 4.09618C8.1418 3.90717 7.91741 3.75724 7.67045 3.65494C7.42349 3.55265 7.15881 3.5 6.8915 3.5C6.35165 3.5 5.83391 3.71445 5.45218 4.09618C5.07045 4.47791 4.856 4.99565 4.856 5.5355C4.856 6.07535 5.07045 6.59309 5.45218 6.97482C5.83391 7.35655 6.35165 7.571 6.8915 7.571ZM4.787 8.588C4.44567 8.588 4.11831 8.72359 3.87695 8.96495C3.63559 9.20631 3.5 9.53367 3.5 9.875C3.50005 10.4336 3.68682 10.9762 4.03063 11.4165C4.37444 11.8568 4.85555 12.1695 5.3975 12.305L5.477 12.326C6.407 12.5585 7.3775 12.5585 8.306 12.326L8.387 12.3065C8.92895 12.171 9.41006 11.8583 9.75387 11.418C10.0977 10.9777 10.2845 10.4351 10.2845 9.8765C10.2847 9.70736 10.2516 9.53985 10.187 9.38353C10.1224 9.22721 10.0276 9.08515 9.90808 8.96548C9.78855 8.84582 9.6466 8.75088 9.49036 8.68611C9.33412 8.62134 9.16664 8.588 8.9975 8.588H4.787ZM13.25 5C13.0511 5 12.8603 5.07902 12.7197 5.21967C12.579 5.36032 12.5 5.55109 12.5 5.75C12.5 5.94891 12.579 6.13968 12.7197 6.28033C12.8603 6.42098 13.0511 6.5 13.25 6.5H17.75C17.9489 6.5 18.1397 6.42098 18.2803 6.28033C18.421 6.13968 18.5 5.94891 18.5 5.75C18.5 5.55109 18.421 5.36032 18.2803 5.21967C18.1397 5.07902 17.9489 5 17.75 5H13.25ZM13.25 9.5C13.0511 9.5 12.8603 9.57902 12.7197 9.71967C12.579 9.86032 12.5 10.0511 12.5 10.25C12.5 10.4489 12.579 10.6397 12.7197 10.7803C12.8603 10.921 13.0511 11 13.25 11H17.75C17.9489 11 18.1397 10.921 18.2803 10.7803C18.421 10.6397 18.5 10.4489 18.5 10.25C18.5 10.0511 18.421 9.86032 18.2803 9.71967C18.1397 9.57902 17.9489 9.5 17.75 9.5H13.25Z" fill="#282F44"/>
</svg>
