<svg width="24" height="24" viewBox="0 0 24 24" fill="none" xmlns="http://www.w3.org/2000/svg">
<path d="M8.57812 7.40625L13.1719 12L8.57812 16.5938L9.98438 18L15.9844 12L9.98438 6L8.57812 7.40625Z" fill="white"/>
<path d="M12 23C18.0751 23 23 18.0751 23 12H25C25 19.1797 19.1797 25 12 25V23ZM1 12C1 18.0751 5.92487 23 12 23V25C4.8203 25 -1 19.1797 -1 12H1ZM12 1C5.92487 1 1 5.92487 1 12H-1C-1 4.8203 4.8203 -1 12 -1V1ZM12 -1C19.1797 -1 25 4.8203 25 12H23C23 5.92487 18.0751 1 12 1V-1Z" fill="white"/>
</svg>
