<svg width="29" height="28" viewBox="0 0 29 28" fill="none" xmlns="http://www.w3.org/2000/svg">
<path d="M10.0496 10.4998C10.0496 10.3142 10.1234 10.1361 10.2546 10.0048C10.3859 9.87355 10.564 9.7998 10.7496 9.7998H17.7496C17.9353 9.7998 18.1133 9.87355 18.2446 10.0048C18.3759 10.1361 18.4496 10.3142 18.4496 10.4998C18.4496 10.6855 18.3759 10.8635 18.2446 10.9948C18.1133 11.1261 17.9353 11.1998 17.7496 11.1998H10.7496C10.564 11.1998 10.3859 11.1261 10.2546 10.9948C10.1234 10.8635 10.0496 10.6855 10.0496 10.4998ZM10.7496 13.9998C10.564 13.9998 10.3859 14.0736 10.2546 14.2048C10.1234 14.3361 10.0496 14.5142 10.0496 14.6998C10.0496 14.8855 10.1234 15.0635 10.2546 15.1948C10.3859 15.3261 10.564 15.3998 10.7496 15.3998H17.7496C17.9353 15.3998 18.1133 15.3261 18.2446 15.1948C18.3759 15.0635 18.4496 14.8855 18.4496 14.6998C18.4496 14.5142 18.3759 14.3361 18.2446 14.2048C18.1133 14.0736 17.9353 13.9998 17.7496 13.9998H10.7496ZM10.0496 18.8998C10.0496 18.7142 10.1234 18.5361 10.2546 18.4048C10.3859 18.2736 10.564 18.1998 10.7496 18.1998H13.5496C13.7353 18.1998 13.9133 18.2736 14.0446 18.4048C14.1759 18.5361 14.2496 18.7142 14.2496 18.8998C14.2496 19.0855 14.1759 19.2635 14.0446 19.3948C13.9133 19.5261 13.7353 19.5998 13.5496 19.5998H10.7496C10.564 19.5998 10.3859 19.5261 10.2546 19.3948C10.1234 19.2635 10.0496 19.0855 10.0496 18.8998ZM8.64961 3.4998C8.64961 3.31415 8.72336 3.13611 8.85463 3.00483C8.98591 2.87355 9.16396 2.7998 9.34961 2.7998C9.53526 2.7998 9.71331 2.87355 9.84458 3.00483C9.97586 3.13611 10.0496 3.31415 10.0496 3.4998V4.1998H13.5496V3.4998C13.5496 3.31415 13.6234 3.13611 13.7546 3.00483C13.8859 2.87355 14.064 2.7998 14.2496 2.7998C14.4353 2.7998 14.6133 2.87355 14.7446 3.00483C14.8759 3.13611 14.9496 3.31415 14.9496 3.4998V4.1998H18.4496V3.4998C18.4496 3.31415 18.5234 3.13611 18.6546 3.00483C18.7859 2.87355 18.964 2.7998 19.1496 2.7998C19.3353 2.7998 19.5133 2.87355 19.6446 3.00483C19.7759 3.13611 19.8496 3.31415 19.8496 3.4998V4.1998H20.5496C21.1066 4.1998 21.6407 4.42105 22.0345 4.81488C22.4284 5.20871 22.6496 5.74285 22.6496 6.2998V12.9246C22.1932 13.1206 21.7648 13.4034 21.3924 13.7772L21.2496 13.92V6.2998C21.2496 6.11415 21.1759 5.93611 21.0446 5.80483C20.9133 5.67355 20.7353 5.5998 20.5496 5.5998H7.94961C7.76396 5.5998 7.58591 5.67355 7.45463 5.80483C7.32336 5.93611 7.24961 6.11415 7.24961 6.2998V23.0998C7.24961 23.2855 7.32336 23.4635 7.45463 23.5948C7.58591 23.7261 7.76396 23.7998 7.94961 23.7998H13.1576L12.9294 24.714C12.8895 24.8733 12.8642 25.0359 12.8538 25.1998H7.94961C7.39265 25.1998 6.85851 24.9786 6.46468 24.5847C6.07086 24.1909 5.84961 23.6568 5.84961 23.0998V6.2998C5.84961 5.74285 6.07086 5.20871 6.46468 4.81488C6.85851 4.42105 7.39265 4.1998 7.94961 4.1998H8.64961V3.4998ZM22.3836 14.767L15.6216 21.529C15.2275 21.9229 14.9478 22.4165 14.8124 22.957L14.2874 25.0542C14.2356 25.2628 14.2387 25.4812 14.2963 25.6883C14.3539 25.8953 14.464 26.084 14.6161 26.2358C14.7681 26.3877 14.9568 26.4977 15.1639 26.5551C15.371 26.6125 15.5895 26.6154 15.798 26.5634L17.8952 26.0398C18.4358 25.9046 18.9294 25.6249 19.3232 25.2306L26.0852 18.4686C26.5698 17.9763 26.8402 17.3123 26.8374 16.6215C26.8345 15.9307 26.5588 15.269 26.0702 14.7806C25.5816 14.2922 24.9198 14.0167 24.229 14.0142C23.5382 14.0116 22.8744 14.2822 22.3822 14.767H22.3836Z" fill="#8E919C"/>
</svg>
