<svg width="60" height="26" viewBox="0 0 60 26" fill="none" xmlns="http://www.w3.org/2000/svg">
<g clip-path="url(#clip0_401_276)">
<path d="M0.537598 20H12.6176V16.6133H4.85759V0.93335H0.537598V20Z" fill="#333333"/>
<path d="M20.559 17.36C18.3723 17.36 17.1456 15.76 17.1456 13.0933V12.88C17.1456 10.2133 18.4256 8.66667 20.559 8.66667C22.719 8.66667 23.9723 10.2667 23.9723 12.9333V13.12C23.9723 15.76 22.719 17.36 20.559 17.36ZM20.5323 20.2933C24.719 20.2933 27.8923 17.4933 27.8923 13.0933V12.88C27.8923 8.53334 24.7456 5.73334 20.559 5.73334C16.3723 5.73334 13.199 8.58667 13.199 12.96V13.1733C13.199 17.52 16.3723 20.2933 20.5323 20.2933Z" fill="#333333"/>
<path d="M35.8713 25.1467C40.458 25.1467 43.2046 23.04 43.2313 18.9067V6.05334H39.3913V8.13334C38.5913 6.72 37.2313 5.73334 34.9646 5.73334C31.498 5.73334 28.8313 8.53334 28.8313 12.5333V12.72C28.8313 16.8533 31.5246 19.3867 34.9113 19.3867C36.9646 19.3867 38.618 18.16 39.3913 16.8V18.9067C39.3913 21.0933 38.218 22.32 35.8713 22.32C33.898 22.32 33.018 21.52 32.778 20.2933H28.938C29.3113 23.1733 31.3646 25.1467 35.8713 25.1467ZM36.058 16.48C34.138 16.48 32.778 15.04 32.778 12.72V12.5067C32.778 10.2133 33.978 8.66667 36.138 8.66667C38.2446 8.66667 39.498 10.1067 39.498 12.48V12.6667C39.498 15.04 38.0846 16.48 36.058 16.48Z" fill="#333333"/>
<path d="M52.3444 17.36C50.1577 17.36 48.931 15.76 48.931 13.0933V12.88C48.931 10.2133 50.211 8.66667 52.3444 8.66667C54.5044 8.66667 55.7577 10.2667 55.7577 12.9333V13.12C55.7577 15.76 54.5044 17.36 52.3444 17.36ZM52.3177 20.2933C56.5044 20.2933 59.6777 17.4933 59.6777 13.0933V12.88C59.6777 8.53334 56.531 5.73334 52.3444 5.73334C48.1577 5.73334 44.9844 8.58667 44.9844 12.96V13.1733C44.9844 17.52 48.1577 20.2933 52.3177 20.2933Z" fill="#333333"/>
</g>
<defs>
<clipPath id="clip0_401_276">
<rect width="60" height="25.7143" fill="white"/>
</clipPath>
</defs>
</svg>
