<svg width="24" height="24" viewBox="0 0 24 24" fill="none" xmlns="http://www.w3.org/2000/svg">
<path d="M0 12C0 5.37258 5.37258 0 12 0C18.6274 0 24 5.37258 24 12C24 18.6274 18.6274 24 12 24C5.37258 24 0 18.6274 0 12Z" fill="#707070"/>
<path d="M12.002 6.09788C13.9259 6.09788 14.1517 6.10645 14.9121 6.14076C15.6153 6.1722 15.9955 6.28941 16.2499 6.38946C16.5873 6.52096 16.8274 6.67533 17.079 6.92689C17.3305 7.17845 17.4877 7.41858 17.6164 7.7559C17.7136 8.01032 17.8336 8.39052 17.8651 9.09375C17.8994 9.85415 17.908 10.08 17.908 12.0039C17.908 13.9277 17.8994 14.1536 17.8651 14.914C17.8336 15.6172 17.7164 15.9974 17.6164 16.2518C17.4849 16.5891 17.3305 16.8293 17.079 17.0808C16.8274 17.3324 16.5873 17.4896 16.2499 17.6183C15.9955 17.7155 15.6153 17.8355 14.9121 17.867C14.1517 17.9013 13.9259 17.9098 12.002 17.9098C10.0781 17.9098 9.85227 17.9013 9.09187 17.867C8.38864 17.8355 8.00844 17.7183 7.75402 17.6183C7.4167 17.4868 7.17657 17.3324 6.92501 17.0808C6.67345 16.8293 6.51622 16.5891 6.38758 16.2518C6.29039 15.9974 6.17032 15.6172 6.13888 14.914C6.10457 14.1536 6.096 13.9277 6.096 12.0039C6.096 10.08 6.10457 9.85415 6.13888 9.09375C6.17032 8.39052 6.28753 8.01032 6.38758 7.7559C6.51908 7.41858 6.67345 7.17845 6.92501 6.92689C7.17657 6.67533 7.4167 6.5181 7.75402 6.38946C8.00844 6.29227 8.38864 6.1722 9.09187 6.14076C9.85227 6.1036 10.081 6.09788 12.002 6.09788ZM12.002 4.80005C10.0467 4.80005 9.80082 4.80862 9.03184 4.84293C8.26572 4.87723 7.74258 5.00015 7.2852 5.17739C6.81066 5.36035 6.41045 5.60905 6.01024 6.00926C5.61003 6.40947 5.36418 6.81254 5.17837 7.28422C5.00113 7.7416 4.87821 8.26474 4.84391 9.03372C4.8096 9.79984 4.80103 10.0457 4.80103 12.001C4.80103 13.9563 4.8096 14.2022 4.84391 14.9711C4.87821 15.7373 5.00113 16.2604 5.17837 16.7206C5.36132 17.1952 5.61003 17.5954 6.01024 17.9956C6.41045 18.3958 6.81352 18.6417 7.2852 18.8275C7.74258 19.0047 8.26572 19.1276 9.0347 19.1619C9.80368 19.1962 10.0467 19.2048 12.0048 19.2048C13.963 19.2048 14.206 19.1962 14.975 19.1619C15.7411 19.1276 16.2642 19.0047 16.7245 18.8275C17.199 18.6445 17.5992 18.3958 17.9994 17.9956C18.3997 17.5954 18.6455 17.1923 18.8313 16.7206C19.0086 16.2633 19.1315 15.7401 19.1658 14.9711C19.2001 14.2022 19.2087 13.9592 19.2087 12.001C19.2087 10.0428 19.2001 9.79984 19.1658 9.03086C19.1315 8.26474 19.0086 7.7416 18.8313 7.28136C18.6484 6.80682 18.3997 6.40661 17.9994 6.0064C17.5992 5.60619 17.1962 5.36035 16.7245 5.17453C16.2671 4.9973 15.744 4.87437 14.975 4.84007C14.2031 4.80862 13.9573 4.80005 12.002 4.80005Z" fill="white"/>
<path d="M12.002 6.09788C13.9259 6.09788 14.1517 6.10645 14.9121 6.14076C15.6153 6.1722 15.9955 6.28941 16.2499 6.38946C16.5873 6.52096 16.8274 6.67533 17.079 6.92689C17.3305 7.17845 17.4877 7.41858 17.6164 7.7559C17.7136 8.01032 17.8336 8.39052 17.8651 9.09375C17.8994 9.85415 17.908 10.08 17.908 12.0039C17.908 13.9277 17.8994 14.1536 17.8651 14.914C17.8336 15.6172 17.7164 15.9974 17.6164 16.2518C17.4849 16.5891 17.3305 16.8293 17.079 17.0808C16.8274 17.3324 16.5873 17.4896 16.2499 17.6183C15.9955 17.7155 15.6153 17.8355 14.9121 17.867C14.1517 17.9013 13.9259 17.9098 12.002 17.9098C10.0781 17.9098 9.85227 17.9013 9.09187 17.867C8.38864 17.8355 8.00844 17.7183 7.75402 17.6183C7.4167 17.4868 7.17657 17.3324 6.92501 17.0808C6.67345 16.8293 6.51622 16.5891 6.38758 16.2518C6.29039 15.9974 6.17032 15.6172 6.13888 14.914C6.10457 14.1536 6.096 13.9277 6.096 12.0039C6.096 10.08 6.10457 9.85415 6.13888 9.09375C6.17032 8.39052 6.28753 8.01032 6.38758 7.7559C6.51908 7.41858 6.67345 7.17845 6.92501 6.92689C7.17657 6.67533 7.4167 6.5181 7.75402 6.38946C8.00844 6.29227 8.38864 6.1722 9.09187 6.14076C9.85227 6.1036 10.081 6.09788 12.002 6.09788Z" fill="white"/>
<path d="M12.0018 8.30469C9.96075 8.30469 8.30273 9.95985 8.30273 12.0038C8.30273 14.0477 9.9579 15.7029 12.0018 15.7029C14.0458 15.7029 15.7009 14.0477 15.7009 12.0038C15.7009 9.95985 14.0458 8.30469 12.0018 8.30469ZM12.0018 14.4022C10.6754 14.4022 9.60056 13.3273 9.60056 12.0009C9.60056 10.6745 10.6754 9.59966 12.0018 9.59966C13.3282 9.59966 14.4031 10.6745 14.4031 12.0009C14.4031 13.3273 13.3282 14.4022 12.0018 14.4022Z" fill="#707070"/>
<path d="M15.8467 9.01935C16.3235 9.01935 16.71 8.63283 16.71 8.15604C16.71 7.67924 16.3235 7.29272 15.8467 7.29272C15.3699 7.29272 14.9834 7.67924 14.9834 8.15604C14.9834 8.63283 15.3699 9.01935 15.8467 9.01935Z" fill="#707070"/>
</svg>
